<?xml version="1.0" encoding="utf-8" standalone="no"?>
<!DOCTYPE svg PUBLIC "-//W3C//DTD SVG 1.1//EN"
  "http://www.w3.org/Graphics/SVG/1.1/DTD/svg11.dtd">
<svg height="345.6pt" version="1.1" viewBox="0 0 460.8 345.6" width="460.8pt" xmlns="http://www.w3.org/2000/svg" xmlns:xlink="http://www.w3.org/1999/xlink">
 <metadata>
  <rdf:RDF xmlns:cc="http://creativecommons.org/ns#" xmlns:dc="http://purl.org/dc/elements/1.1/" xmlns:rdf="http://www.w3.org/1999/02/22-rdf-syntax-ns#">
   <cc:Work>
    <dc:type rdf:resource="http://purl.org/dc/dcmitype/StillImage"/>
    <dc:date>2022-07-18T11:45:50.148226</dc:date>
    <dc:format>image/svg+xml</dc:format>
    <dc:creator>
     <cc:Agent>
      <dc:title>Matplotlib v3.4.3, https://matplotlib.org/</dc:title>
     </cc:Agent>
    </dc:creator>
   </cc:Work>
  </rdf:RDF>
 </metadata>
 <defs>
  <style type="text/css">*{stroke-linecap:butt;stroke-linejoin:round;}</style>
 </defs>
 <g id="figure_1">
  <g id="patch_1">
   <path d="M 0 345.6 
L 460.8 345.6 
L 460.8 0 
L 0 0 
z
" style="fill:none;"/>
  </g>
  <g id="axes_1">
   <g id="patch_2">
    <path clip-path="url(#pc80d1184d9)" d="M 70.704462 210.433718 
C 80.685041 210.433718 90.258184 206.468392 97.315519 199.411057 
C 104.372854 192.353722 108.33818 182.780579 108.33818 172.8 
C 108.33818 162.819421 104.372854 153.246278 97.315519 146.188943 
C 90.258184 139.131608 80.685041 135.166282 70.704462 135.166282 
C 60.723884 135.166282 51.15074 139.131608 44.093405 146.188943 
C 37.03607 153.246278 33.070745 162.819421 33.070745 172.8 
C 33.070745 182.780579 37.03607 192.353722 44.093405 199.411057 
C 51.15074 206.468392 60.723884 210.433718 70.704462 210.433718 
z
" style="fill:#1a03cc;opacity:0.6;stroke:#1a03cc;stroke-linejoin:miter;stroke-width:8;"/>
   </g>
   <g id="patch_3">
    <path clip-path="url(#pc80d1184d9)" d="M 403.927603 196.601653 
C 410.239875 196.601653 416.294462 194.093761 420.757913 189.63031 
C 425.221363 185.16686 427.729255 179.112272 427.729255 172.8 
C 427.729255 166.487728 425.221363 160.43314 420.757913 155.96969 
C 416.294462 151.506239 410.239875 148.998347 403.927603 148.998347 
C 397.61533 148.998347 391.560743 151.506239 387.097292 155.96969 
C 382.633842 160.43314 380.12595 166.487728 380.12595 172.8 
C 380.12595 179.112272 382.633842 185.16686 387.097292 189.63031 
C 391.560743 194.093761 397.61533 196.601653 403.927603 196.601653 
z
" style="fill:#cc1a1a;opacity:0.6;stroke:#cc1a1a;stroke-linejoin:miter;stroke-width:8;"/>
   </g>
   <g id="patch_4">
    <path clip-path="url(#pc80d1184d9)" d="M 199.233388 91.87438 
L 275.398677 91.87438 
Q 299.20033 91.87438 299.20033 68.072727 
L 299.20033 39.510744 
Q 299.20033 15.709091 275.398677 15.709091 
L 199.233388 15.709091 
Q 175.431735 15.709091 175.431735 39.510744 
L 175.431735 68.072727 
Q 175.431735 91.87438 199.233388 91.87438 
z
" style="fill:#1a03cc;stroke:#1a03cc;stroke-linejoin:miter;"/>
   </g>
   <g id="patch_5">
    <path clip-path="url(#pc80d1184d9)" d="M 199.233388 329.890909 
L 275.398677 329.890909 
Q 299.20033 329.890909 299.20033 306.089256 
L 299.20033 277.527273 
Q 299.20033 253.72562 275.398677 253.72562 
L 199.233388 253.72562 
Q 175.431735 253.72562 175.431735 277.527273 
L 175.431735 306.089256 
Q 175.431735 329.890909 199.233388 329.890909 
z
" style="fill:#cc1a1a;stroke:#cc1a1a;stroke-linejoin:miter;"/>
   </g>
   <g id="patch_6">
    <path d="M 239.037863 110.433198 
L 249.480437 101.049512 
Q 260.847552 187.735477 244.589894 271.490793 
L 253.624306 267.924677 
Q 248.278519 279.576293 237.704781 289.844264 
Q 231.764511 276.456916 229.876697 264.453213 
L 237.476101 270.379957 
Q 247.386334 186.556136 225.928026 105.662962 
L 239.037863 110.433198 
z
" style="fill:#cc1a1a;stroke:#cc1a1a;stroke-linecap:round;"/>
   </g>
   <g id="patch_7">
    <path d="M 364.241013 203.247109 
L 377.950586 206.305113 
Q 323.344002 256.009253 258.070451 285.838763 
L 266.275894 291.047791 
Q 253.659742 293.602612 239.139045 290.982848 
Q 246.572174 278.361802 255.114092 269.801281 
L 254.794607 279.427145 
Q 316.421799 244.420112 360.51757 189.809964 
L 364.241013 203.247109 
z
" style="fill:#cc1a1a;stroke:#cc1a1a;stroke-linecap:round;"/>
   </g>
   <g id="text_1">
    <!-- A -->
    <g style="fill:#ffffff;" transform="translate(220.898532 67.036736)scale(0.48 -0.48)">
     <defs>
      <path d="M 2188 4044 
L 1331 1722 
L 3047 1722 
L 2188 4044 
z
M 1831 4666 
L 2547 4666 
L 4325 0 
L 3669 0 
L 3244 1197 
L 1141 1197 
L 716 0 
L 50 0 
L 1831 4666 
z
" id="DejaVuSans-41" transform="scale(0.015625)"/>
     </defs>
     <use xlink:href="#DejaVuSans-41"/>
    </g>
   </g>
   <g id="text_2">
    <!-- B -->
    <g style="fill:#ffffff;" transform="translate(220.849782 305.053264)scale(0.48 -0.48)">
     <defs>
      <path d="M 1259 2228 
L 1259 519 
L 2272 519 
Q 2781 519 3026 730 
Q 3272 941 3272 1375 
Q 3272 1813 3026 2020 
Q 2781 2228 2272 2228 
L 1259 2228 
z
M 1259 4147 
L 1259 2741 
L 2194 2741 
Q 2656 2741 2882 2914 
Q 3109 3088 3109 3444 
Q 3109 3797 2882 3972 
Q 2656 4147 2194 4147 
L 1259 4147 
z
M 628 4666 
L 2241 4666 
Q 2963 4666 3353 4366 
Q 3744 4066 3744 3513 
Q 3744 3084 3544 2831 
Q 3344 2578 2956 2516 
Q 3422 2416 3680 2098 
Q 3938 1781 3938 1306 
Q 3938 681 3513 340 
Q 3088 0 2303 0 
L 628 0 
L 628 4666 
z
" id="DejaVuSans-42" transform="scale(0.015625)"/>
     </defs>
     <use xlink:href="#DejaVuSans-42"/>
    </g>
   </g>
  </g>
 </g>
 <defs>
  <clipPath id="pc80d1184d9">
   <rect height="345.6" width="460.8" x="0" y="0"/>
  </clipPath>
 </defs>
</svg>
