<?xml version="1.0" encoding="utf-8" standalone="no"?>
<!DOCTYPE svg PUBLIC "-//W3C//DTD SVG 1.1//EN"
  "http://www.w3.org/Graphics/SVG/1.1/DTD/svg11.dtd">
<svg height="345.6pt" version="1.1" viewBox="0 0 460.8 345.6" width="460.8pt" xmlns="http://www.w3.org/2000/svg" xmlns:xlink="http://www.w3.org/1999/xlink">
 <metadata>
  <rdf:RDF xmlns:cc="http://creativecommons.org/ns#" xmlns:dc="http://purl.org/dc/elements/1.1/" xmlns:rdf="http://www.w3.org/1999/02/22-rdf-syntax-ns#">
   <cc:Work>
    <dc:type rdf:resource="http://purl.org/dc/dcmitype/StillImage"/>
    <dc:date>2022-07-18T11:45:50.049938</dc:date>
    <dc:format>image/svg+xml</dc:format>
    <dc:creator>
     <cc:Agent>
      <dc:title>Matplotlib v3.4.3, https://matplotlib.org/</dc:title>
     </cc:Agent>
    </dc:creator>
   </cc:Work>
  </rdf:RDF>
 </metadata>
 <defs>
  <style type="text/css">*{stroke-linecap:butt;stroke-linejoin:round;}</style>
 </defs>
 <g id="figure_1">
  <g id="patch_1">
   <path d="M 0 345.6 
L 460.8 345.6 
L 460.8 0 
L 0 0 
z
" style="fill:none;"/>
  </g>
  <g id="axes_1">
   <g id="patch_2">
    <path clip-path="url(#p41d12ecc31)" d="M 59.539017 211.393562 
C 69.774149 211.393562 79.591455 207.327101 86.828786 200.08977 
C 94.066118 192.852438 98.132579 183.035132 98.132579 172.8 
C 98.132579 162.564868 94.066118 152.747562 86.828786 145.51023 
C 79.591455 138.272899 69.774149 134.206438 59.539017 134.206438 
C 49.303884 134.206438 39.486579 138.272899 32.249247 145.51023 
C 25.011916 152.747562 20.945455 162.564868 20.945455 172.8 
C 20.945455 183.035132 25.011916 192.852438 32.249247 200.08977 
C 39.486579 207.327101 49.303884 211.393562 59.539017 211.393562 
z
" style="fill:#1a03cc;opacity:0.6;stroke:#1a03cc;stroke-linejoin:miter;stroke-width:8;"/>
   </g>
   <g id="patch_3">
    <path clip-path="url(#p41d12ecc31)" d="M 401.260983 211.393562 
C 411.496116 211.393562 421.313421 207.327101 428.550753 200.08977 
C 435.788084 192.852438 439.854545 183.035132 439.854545 172.8 
C 439.854545 162.564868 435.788084 152.747562 428.550753 145.51023 
C 421.313421 138.272899 411.496116 134.206438 401.260983 134.206438 
C 391.025851 134.206438 381.208545 138.272899 373.971214 145.51023 
C 366.733882 152.747562 362.667421 162.564868 362.667421 172.8 
C 362.667421 183.035132 366.733882 192.852438 373.971214 200.08977 
C 381.208545 207.327101 391.025851 211.393562 401.260983 211.393562 
z
" style="fill:#cc1a1a;opacity:0.6;stroke:#cc1a1a;stroke-linejoin:miter;stroke-width:8;"/>
   </g>
   <g id="patch_4">
    <path clip-path="url(#p41d12ecc31)" d="M 191.346061 89.81038 
L 269.453939 89.81038 
Q 293.862651 89.81038 293.862651 65.401668 
L 293.862651 36.111213 
Q 293.862651 11.702501 269.453939 11.702501 
L 191.346061 11.702501 
Q 166.937349 11.702501 166.937349 36.111213 
L 166.937349 65.401668 
Q 166.937349 89.81038 191.346061 89.81038 
z
" style="fill:#1a03cc;stroke:#1a03cc;stroke-linejoin:miter;"/>
   </g>
   <g id="patch_5">
    <path clip-path="url(#p41d12ecc31)" d="M 191.346061 333.897499 
L 269.453939 333.897499 
Q 293.862651 333.897499 293.862651 309.488787 
L 293.862651 280.198332 
Q 293.862651 255.78962 269.453939 255.78962 
L 191.346061 255.78962 
Q 166.937349 255.78962 166.937349 280.198332 
L 166.937349 309.488787 
Q 166.937349 333.897499 191.346061 333.897499 
z
" style="fill:#cc1a1a;stroke:#cc1a1a;stroke-linejoin:miter;"/>
   </g>
   <g id="patch_6">
    <path d="M 232.123926 108.61181 
L 242.564748 99.229575 
Q 254.417092 188.352794 237.683633 274.536335 
L 246.722314 270.981091 
Q 241.362514 282.617761 230.788358 292.882064 
Q 224.849646 279.493976 222.979312 267.478256 
L 230.571042 273.417836 
Q 240.954773 187.161699 219.012771 103.845239 
L 232.123926 108.61181 
z
" style="fill:#cc1a1a;stroke:#cc1a1a;stroke-linecap:round;"/>
   </g>
   <g id="text_1">
    <!-- A -->
    <g style="fill:#ffffff;" transform="translate(213.9825 64.001441)scale(0.48 -0.48)">
     <defs>
      <path d="M 2188 4044 
L 1331 1722 
L 3047 1722 
L 2188 4044 
z
M 1831 4666 
L 2547 4666 
L 4325 0 
L 3669 0 
L 3244 1197 
L 1141 1197 
L 716 0 
L 50 0 
L 1831 4666 
z
" id="DejaVuSans-41" transform="scale(0.015625)"/>
     </defs>
     <use xlink:href="#DejaVuSans-41"/>
    </g>
   </g>
   <g id="text_2">
    <!-- B -->
    <g style="fill:#ffffff;" transform="translate(213.93375 308.088559)scale(0.48 -0.48)">
     <defs>
      <path d="M 1259 2228 
L 1259 519 
L 2272 519 
Q 2781 519 3026 730 
Q 3272 941 3272 1375 
Q 3272 1813 3026 2020 
Q 2781 2228 2272 2228 
L 1259 2228 
z
M 1259 4147 
L 1259 2741 
L 2194 2741 
Q 2656 2741 2882 2914 
Q 3109 3088 3109 3444 
Q 3109 3797 2882 3972 
Q 2656 4147 2194 4147 
L 1259 4147 
z
M 628 4666 
L 2241 4666 
Q 2963 4666 3353 4366 
Q 3744 4066 3744 3513 
Q 3744 3084 3544 2831 
Q 3344 2578 2956 2516 
Q 3422 2416 3680 2098 
Q 3938 1781 3938 1306 
Q 3938 681 3513 340 
Q 3088 0 2303 0 
L 628 0 
L 628 4666 
z
" id="DejaVuSans-42" transform="scale(0.015625)"/>
     </defs>
     <use xlink:href="#DejaVuSans-42"/>
    </g>
   </g>
  </g>
 </g>
 <defs>
  <clipPath id="p41d12ecc31">
   <rect height="345.6" width="460.8" x="0" y="0"/>
  </clipPath>
 </defs>
</svg>
