<?xml version="1.0" encoding="utf-8" standalone="no"?>
<!DOCTYPE svg PUBLIC "-//W3C//DTD SVG 1.1//EN"
  "http://www.w3.org/Graphics/SVG/1.1/DTD/svg11.dtd">
<svg height="345.6pt" version="1.1" viewBox="0 0 460.8 345.6" width="460.8pt" xmlns="http://www.w3.org/2000/svg" xmlns:xlink="http://www.w3.org/1999/xlink">
 <metadata>
  <rdf:RDF xmlns:cc="http://creativecommons.org/ns#" xmlns:dc="http://purl.org/dc/elements/1.1/" xmlns:rdf="http://www.w3.org/1999/02/22-rdf-syntax-ns#">
   <cc:Work>
    <dc:type rdf:resource="http://purl.org/dc/dcmitype/StillImage"/>
    <dc:date>2022-07-18T11:45:50.455731</dc:date>
    <dc:format>image/svg+xml</dc:format>
    <dc:creator>
     <cc:Agent>
      <dc:title>Matplotlib v3.4.3, https://matplotlib.org/</dc:title>
     </cc:Agent>
    </dc:creator>
   </cc:Work>
  </rdf:RDF>
 </metadata>
 <defs>
  <style type="text/css">*{stroke-linecap:butt;stroke-linejoin:round;}</style>
 </defs>
 <g id="figure_1">
  <g id="patch_1">
   <path d="M 0 345.6 
L 460.8 345.6 
L 460.8 0 
L 0 0 
z
" style="fill:none;"/>
  </g>
  <g id="axes_1">
   <g id="patch_2">
    <path clip-path="url(#p4b95a958a8)" d="M 68.599829 220.403306 
C 81.237917 220.403306 93.360083 215.387521 102.296561 206.46062 
C 111.233039 197.533719 116.254204 185.424544 116.254204 172.8 
C 116.254204 160.175456 111.233039 148.066281 102.296561 139.13938 
C 93.360083 130.212479 81.237917 125.196694 68.599829 125.196694 
C 55.961742 125.196694 43.839576 130.212479 34.903098 139.13938 
C 25.96662 148.066281 20.945455 160.175456 20.945455 172.8 
C 20.945455 185.424544 25.96662 197.533719 34.903098 206.46062 
C 43.839576 215.387521 55.961742 220.403306 68.599829 220.403306 
z
" style="fill:#1a03cc;opacity:0.6;stroke:#1a03cc;stroke-linejoin:miter;stroke-width:8;"/>
   </g>
   <g id="patch_3">
    <path clip-path="url(#p4b95a958a8)" d="M 402.180454 210.433718 
C 412.17174 210.433718 421.755154 206.468392 428.82006 199.411057 
C 435.884966 192.353722 439.854545 182.780579 439.854545 172.8 
C 439.854545 162.819421 435.884966 153.246278 428.82006 146.188943 
C 421.755154 139.131608 412.17174 135.166282 402.180454 135.166282 
C 392.189168 135.166282 382.605755 139.131608 375.540849 146.188943 
C 368.475943 153.246278 364.506363 162.819421 364.506363 172.8 
C 364.506363 182.780579 368.475943 192.353722 375.540849 199.411057 
C 382.605755 206.468392 392.189168 210.433718 402.180454 210.433718 
z
" style="fill:#cc1a1a;opacity:0.6;stroke:#cc1a1a;stroke-linejoin:miter;stroke-width:8;"/>
   </g>
   <g id="patch_4">
    <path clip-path="url(#p4b95a958a8)" d="M 197.266642 91.87438 
L 273.513642 91.87438 
Q 297.340829 91.87438 297.340829 68.072727 
L 297.340829 39.510744 
Q 297.340829 15.709091 273.513642 15.709091 
L 197.266642 15.709091 
Q 173.439454 15.709091 173.439454 39.510744 
L 173.439454 68.072727 
Q 173.439454 91.87438 197.266642 91.87438 
z
" style="fill:#1a03cc;stroke:#1a03cc;stroke-linejoin:miter;"/>
   </g>
   <g id="patch_5">
    <path clip-path="url(#p4b95a958a8)" d="M 197.266642 329.890909 
L 273.513642 329.890909 
Q 297.340829 329.890909 297.340829 306.089256 
L 297.340829 277.527273 
Q 297.340829 253.72562 273.513642 253.72562 
L 197.266642 253.72562 
Q 173.439454 253.72562 173.439454 277.527273 
L 173.439454 306.089256 
Q 173.439454 329.890909 197.266642 329.890909 
z
" style="fill:#cc1a1a;stroke:#cc1a1a;stroke-linejoin:miter;"/>
   </g>
   <g id="patch_6">
    <path d="M 108.323276 203.241673 
L 112.043141 189.805884 
Q 156.209803 244.439337 217.913036 279.440381 
L 217.584928 269.813046 
Q 226.131166 278.368472 233.569999 290.985272 
Q 219.051603 293.612988 206.435108 291.065846 
L 214.640809 285.853845 
Q 149.293965 256.032395 94.618491 206.309871 
L 108.323276 203.241673 
z
" style="fill:#cc1a1a;stroke:#cc1a1a;stroke-linecap:round;"/>
   </g>
   <g id="patch_7">
    <path d="M 237.111972 110.433198 
L 247.554547 101.049512 
Q 258.921661 187.735477 242.664003 271.490793 
L 251.698415 267.924677 
Q 246.352628 279.576293 235.77889 289.844264 
Q 229.83862 276.456916 227.950806 264.453213 
L 235.550211 270.379957 
Q 245.460444 186.556136 224.002135 105.662962 
L 237.111972 110.433198 
z
" style="fill:#cc1a1a;stroke:#cc1a1a;stroke-linecap:round;"/>
   </g>
   <g id="text_1">
    <!-- A -->
    <g style="fill:#ffffff;" transform="translate(218.972642 67.036736)scale(0.48 -0.48)">
     <defs>
      <path d="M 2188 4044 
L 1331 1722 
L 3047 1722 
L 2188 4044 
z
M 1831 4666 
L 2547 4666 
L 4325 0 
L 3669 0 
L 3244 1197 
L 1141 1197 
L 716 0 
L 50 0 
L 1831 4666 
z
" id="DejaVuSans-41" transform="scale(0.015625)"/>
     </defs>
     <use xlink:href="#DejaVuSans-41"/>
    </g>
   </g>
   <g id="text_2">
    <!-- B -->
    <g style="fill:#ffffff;" transform="translate(218.923892 305.053264)scale(0.48 -0.48)">
     <defs>
      <path d="M 1259 2228 
L 1259 519 
L 2272 519 
Q 2781 519 3026 730 
Q 3272 941 3272 1375 
Q 3272 1813 3026 2020 
Q 2781 2228 2272 2228 
L 1259 2228 
z
M 1259 4147 
L 1259 2741 
L 2194 2741 
Q 2656 2741 2882 2914 
Q 3109 3088 3109 3444 
Q 3109 3797 2882 3972 
Q 2656 4147 2194 4147 
L 1259 4147 
z
M 628 4666 
L 2241 4666 
Q 2963 4666 3353 4366 
Q 3744 4066 3744 3513 
Q 3744 3084 3544 2831 
Q 3344 2578 2956 2516 
Q 3422 2416 3680 2098 
Q 3938 1781 3938 1306 
Q 3938 681 3513 340 
Q 3088 0 2303 0 
L 628 0 
L 628 4666 
z
" id="DejaVuSans-42" transform="scale(0.015625)"/>
     </defs>
     <use xlink:href="#DejaVuSans-42"/>
    </g>
   </g>
  </g>
 </g>
 <defs>
  <clipPath id="p4b95a958a8">
   <rect height="345.6" width="460.8" x="0" y="0"/>
  </clipPath>
 </defs>
</svg>
