<?xml version="1.0" encoding="utf-8" standalone="no"?>
<!DOCTYPE svg PUBLIC "-//W3C//DTD SVG 1.1//EN"
  "http://www.w3.org/Graphics/SVG/1.1/DTD/svg11.dtd">
<svg height="345.6pt" version="1.1" viewBox="0 0 460.8 345.6" width="460.8pt" xmlns="http://www.w3.org/2000/svg" xmlns:xlink="http://www.w3.org/1999/xlink">
 <metadata>
  <rdf:RDF xmlns:cc="http://creativecommons.org/ns#" xmlns:dc="http://purl.org/dc/elements/1.1/" xmlns:rdf="http://www.w3.org/1999/02/22-rdf-syntax-ns#">
   <cc:Work>
    <dc:type rdf:resource="http://purl.org/dc/dcmitype/StillImage"/>
    <dc:date>2022-07-18T11:45:57.834837</dc:date>
    <dc:format>image/svg+xml</dc:format>
    <dc:creator>
     <cc:Agent>
      <dc:title>Matplotlib v3.4.3, https://matplotlib.org/</dc:title>
     </cc:Agent>
    </dc:creator>
   </cc:Work>
  </rdf:RDF>
 </metadata>
 <defs>
  <style type="text/css">*{stroke-linecap:butt;stroke-linejoin:round;}</style>
 </defs>
 <g id="figure_1">
  <g id="patch_1">
   <path d="M 0 345.6 
L 460.8 345.6 
L 460.8 0 
L 0 0 
z
" style="fill:none;"/>
  </g>
  <g id="axes_1">
   <g id="patch_2">
    <path clip-path="url(#p4aee30656c)" d="M 63.78843 220.403306 
C 76.412974 220.403306 88.522149 215.387521 97.44905 206.46062 
C 106.375951 197.533719 111.391736 185.424544 111.391736 172.8 
C 111.391736 160.175456 106.375951 148.066281 97.44905 139.13938 
C 88.522149 130.212479 76.412974 125.196694 63.78843 125.196694 
C 51.163885 125.196694 39.05471 130.212479 30.127809 139.13938 
C 21.200909 148.066281 16.185124 160.175456 16.185124 172.8 
C 16.185124 185.424544 21.200909 197.533719 30.127809 206.46062 
C 39.05471 215.387521 51.163885 220.403306 63.78843 220.403306 
z
" style="fill:#1a03cc;opacity:0.6;stroke:#1a03cc;stroke-linejoin:miter;stroke-width:8;"/>
   </g>
   <g id="patch_3">
    <path clip-path="url(#p4aee30656c)" d="M 397.01157 220.403306 
C 409.636115 220.403306 421.74529 215.387521 430.672191 206.46062 
C 439.599091 197.533719 444.614876 185.424544 444.614876 172.8 
C 444.614876 160.175456 439.599091 148.066281 430.672191 139.13938 
C 421.74529 130.212479 409.636115 125.196694 397.01157 125.196694 
C 384.387026 125.196694 372.277851 130.212479 363.35095 139.13938 
C 354.424049 148.066281 349.408264 160.175456 349.408264 172.8 
C 349.408264 185.424544 354.424049 197.533719 363.35095 206.46062 
C 372.277851 215.387521 384.387026 220.403306 397.01157 220.403306 
z
" style="fill:#cc1a1a;opacity:0.6;stroke:#cc1a1a;stroke-linejoin:miter;stroke-width:8;"/>
   </g>
   <g id="patch_4">
    <path clip-path="url(#p4aee30656c)" d="M 192.317355 91.87438 
L 268.482645 91.87438 
Q 292.284298 91.87438 292.284298 68.072727 
L 292.284298 39.510744 
Q 292.284298 15.709091 268.482645 15.709091 
L 192.317355 15.709091 
Q 168.515702 15.709091 168.515702 39.510744 
L 168.515702 68.072727 
Q 168.515702 91.87438 192.317355 91.87438 
z
" style="fill:#1a03cc;stroke:#1a03cc;stroke-linejoin:miter;"/>
   </g>
   <g id="patch_5">
    <path clip-path="url(#p4aee30656c)" d="M 192.317355 329.890909 
L 268.482645 329.890909 
Q 292.284298 329.890909 292.284298 306.089256 
L 292.284298 277.527273 
Q 292.284298 253.72562 268.482645 253.72562 
L 192.317355 253.72562 
Q 168.515702 253.72562 168.515702 277.527273 
L 168.515702 306.089256 
Q 168.515702 329.890909 192.317355 329.890909 
z
" style="fill:#cc1a1a;stroke:#cc1a1a;stroke-linejoin:miter;"/>
   </g>
   <g id="patch_6">
    <path d="M 357.324981 142.352891 
L 353.601537 155.790036 
Q 309.505766 101.179888 247.878574 66.172855 
L 248.198059 75.798719 
Q 239.656141 67.238198 232.223013 54.617152 
Q 246.74371 51.997388 259.359862 54.552209 
L 251.154419 59.761237 
Q 316.42797 89.590747 371.034553 139.294887 
L 357.324981 142.352891 
z
" style="fill:#1a03cc;stroke:#1a03cc;stroke-linecap:round;"/>
   </g>
   <g id="patch_7">
    <path d="M 103.475019 203.247109 
L 107.198463 189.809964 
Q 151.294234 244.420112 212.921426 279.427145 
L 212.601941 269.801281 
Q 221.143859 278.361802 228.576987 290.982848 
Q 214.05629 293.602612 201.440138 291.047791 
L 209.645581 285.838763 
Q 144.37203 256.009253 89.765447 206.305113 
L 103.475019 203.247109 
z
" style="fill:#cc1a1a;stroke:#cc1a1a;stroke-linecap:round;"/>
   </g>
   <g id="text_1">
    <!-- a -->
    <g style="fill:#ffffff;" transform="translate(49.08093 186.045)scale(0.48 -0.48)">
     <defs>
      <path d="M 2194 1759 
Q 1497 1759 1228 1600 
Q 959 1441 959 1056 
Q 959 750 1161 570 
Q 1363 391 1709 391 
Q 2188 391 2477 730 
Q 2766 1069 2766 1631 
L 2766 1759 
L 2194 1759 
z
M 3341 1997 
L 3341 0 
L 2766 0 
L 2766 531 
Q 2569 213 2275 61 
Q 1981 -91 1556 -91 
Q 1019 -91 701 211 
Q 384 513 384 1019 
Q 384 1609 779 1909 
Q 1175 2209 1959 2209 
L 2766 2209 
L 2766 2266 
Q 2766 2663 2505 2880 
Q 2244 3097 1772 3097 
Q 1472 3097 1187 3025 
Q 903 2953 641 2809 
L 641 3341 
Q 956 3463 1253 3523 
Q 1550 3584 1831 3584 
Q 2591 3584 2966 3190 
Q 3341 2797 3341 1997 
z
" id="DejaVuSans-61" transform="scale(0.015625)"/>
     </defs>
     <use xlink:href="#DejaVuSans-61"/>
    </g>
   </g>
   <g id="text_2">
    <!-- b -->
    <g style="fill:#ffffff;" transform="translate(381.77532 186.045)scale(0.48 -0.48)">
     <defs>
      <path d="M 3116 1747 
Q 3116 2381 2855 2742 
Q 2594 3103 2138 3103 
Q 1681 3103 1420 2742 
Q 1159 2381 1159 1747 
Q 1159 1113 1420 752 
Q 1681 391 2138 391 
Q 2594 391 2855 752 
Q 3116 1113 3116 1747 
z
M 1159 2969 
Q 1341 3281 1617 3432 
Q 1894 3584 2278 3584 
Q 2916 3584 3314 3078 
Q 3713 2572 3713 1747 
Q 3713 922 3314 415 
Q 2916 -91 2278 -91 
Q 1894 -91 1617 61 
Q 1341 213 1159 525 
L 1159 0 
L 581 0 
L 581 4863 
L 1159 4863 
L 1159 2969 
z
" id="DejaVuSans-62" transform="scale(0.015625)"/>
     </defs>
     <use xlink:href="#DejaVuSans-62"/>
    </g>
   </g>
   <g id="text_3">
    <!-- A -->
    <g style="fill:#ffffff;" transform="translate(213.9825 67.036736)scale(0.48 -0.48)">
     <defs>
      <path d="M 2188 4044 
L 1331 1722 
L 3047 1722 
L 2188 4044 
z
M 1831 4666 
L 2547 4666 
L 4325 0 
L 3669 0 
L 3244 1197 
L 1141 1197 
L 716 0 
L 50 0 
L 1831 4666 
z
" id="DejaVuSans-41" transform="scale(0.015625)"/>
     </defs>
     <use xlink:href="#DejaVuSans-41"/>
    </g>
   </g>
   <g id="text_4">
    <!-- B -->
    <g style="fill:#ffffff;" transform="translate(213.93375 305.053264)scale(0.48 -0.48)">
     <defs>
      <path d="M 1259 2228 
L 1259 519 
L 2272 519 
Q 2781 519 3026 730 
Q 3272 941 3272 1375 
Q 3272 1813 3026 2020 
Q 2781 2228 2272 2228 
L 1259 2228 
z
M 1259 4147 
L 1259 2741 
L 2194 2741 
Q 2656 2741 2882 2914 
Q 3109 3088 3109 3444 
Q 3109 3797 2882 3972 
Q 2656 4147 2194 4147 
L 1259 4147 
z
M 628 4666 
L 2241 4666 
Q 2963 4666 3353 4366 
Q 3744 4066 3744 3513 
Q 3744 3084 3544 2831 
Q 3344 2578 2956 2516 
Q 3422 2416 3680 2098 
Q 3938 1781 3938 1306 
Q 3938 681 3513 340 
Q 3088 0 2303 0 
L 628 0 
L 628 4666 
z
" id="DejaVuSans-42" transform="scale(0.015625)"/>
     </defs>
     <use xlink:href="#DejaVuSans-42"/>
    </g>
   </g>
  </g>
 </g>
 <defs>
  <clipPath id="p4aee30656c">
   <rect height="345.6" width="460.8" x="0" y="0"/>
  </clipPath>
 </defs>
</svg>
