<?xml version="1.0" encoding="utf-8" standalone="no"?>
<!DOCTYPE svg PUBLIC "-//W3C//DTD SVG 1.1//EN"
  "http://www.w3.org/Graphics/SVG/1.1/DTD/svg11.dtd">
<svg height="345.6pt" version="1.1" viewBox="0 0 460.8 345.6" width="460.8pt" xmlns="http://www.w3.org/2000/svg" xmlns:xlink="http://www.w3.org/1999/xlink">
 <metadata>
  <rdf:RDF xmlns:cc="http://creativecommons.org/ns#" xmlns:dc="http://purl.org/dc/elements/1.1/" xmlns:rdf="http://www.w3.org/1999/02/22-rdf-syntax-ns#">
   <cc:Work>
    <dc:type rdf:resource="http://purl.org/dc/dcmitype/StillImage"/>
    <dc:date>2022-07-18T11:45:52.553881</dc:date>
    <dc:format>image/svg+xml</dc:format>
    <dc:creator>
     <cc:Agent>
      <dc:title>Matplotlib v3.4.3, https://matplotlib.org/</dc:title>
     </cc:Agent>
    </dc:creator>
   </cc:Work>
  </rdf:RDF>
 </metadata>
 <defs>
  <style type="text/css">*{stroke-linecap:butt;stroke-linejoin:round;}</style>
 </defs>
 <g id="figure_1">
  <g id="patch_1">
   <path d="M 0 345.6 
L 460.8 345.6 
L 460.8 0 
L 0 0 
z
" style="fill:none;"/>
  </g>
  <g id="axes_1">
   <g id="patch_2">
    <path clip-path="url(#p4bbdccc782)" d="M 58.619546 210.433718 
C 68.610832 210.433718 78.194245 206.468392 85.259151 199.411057 
C 92.324057 192.353722 96.293637 182.780579 96.293637 172.8 
C 96.293637 162.819421 92.324057 153.246278 85.259151 146.188943 
C 78.194245 139.131608 68.610832 135.166282 58.619546 135.166282 
C 48.62826 135.166282 39.044846 139.131608 31.97994 146.188943 
C 24.915034 153.246278 20.945455 162.819421 20.945455 172.8 
C 20.945455 182.780579 24.915034 192.353722 31.97994 199.411057 
C 39.044846 206.468392 48.62826 210.433718 58.619546 210.433718 
z
" style="fill:#1a03cc;opacity:0.6;stroke:#1a03cc;stroke-linejoin:miter;stroke-width:8;"/>
   </g>
   <g id="patch_3">
    <path clip-path="url(#p4bbdccc782)" d="M 392.200171 220.403306 
C 404.838258 220.403306 416.960424 215.387521 425.896902 206.46062 
C 434.83338 197.533719 439.854545 185.424544 439.854545 172.8 
C 439.854545 160.175456 434.83338 148.066281 425.896902 139.13938 
C 416.960424 130.212479 404.838258 125.196694 392.200171 125.196694 
C 379.562083 125.196694 367.439917 130.212479 358.503439 139.13938 
C 349.566961 148.066281 344.545796 160.175456 344.545796 172.8 
C 344.545796 185.424544 349.566961 197.533719 358.503439 206.46062 
C 367.439917 215.387521 379.562083 220.403306 392.200171 220.403306 
z
" style="fill:#cc1a1a;opacity:0.6;stroke:#cc1a1a;stroke-linejoin:miter;stroke-width:8;"/>
   </g>
   <g id="patch_4">
    <path clip-path="url(#p4bbdccc782)" d="M 187.286358 91.87438 
L 263.533358 91.87438 
Q 287.360546 91.87438 287.360546 68.072727 
L 287.360546 39.510744 
Q 287.360546 15.709091 263.533358 15.709091 
L 187.286358 15.709091 
Q 163.459171 15.709091 163.459171 39.510744 
L 163.459171 68.072727 
Q 163.459171 91.87438 187.286358 91.87438 
z
" style="fill:#1a03cc;stroke:#1a03cc;stroke-linejoin:miter;"/>
   </g>
   <g id="patch_5">
    <path clip-path="url(#p4bbdccc782)" d="M 187.286358 329.890909 
L 263.533358 329.890909 
Q 287.360546 329.890909 287.360546 306.089256 
L 287.360546 277.527273 
Q 287.360546 253.72562 263.533358 253.72562 
L 187.286358 253.72562 
Q 163.459171 253.72562 163.459171 277.527273 
L 163.459171 306.089256 
Q 163.459171 329.890909 187.286358 329.890909 
z
" style="fill:#cc1a1a;stroke:#cc1a1a;stroke-linejoin:miter;"/>
   </g>
   <g id="patch_6">
    <path d="M 223.688028 235.166802 
L 213.245453 244.550488 
Q 201.878339 157.864523 218.135997 74.109207 
L 209.101585 77.675323 
Q 214.447372 66.023707 225.02111 55.755736 
Q 230.96138 69.143084 232.849194 81.146787 
L 225.249789 75.220043 
Q 215.339556 159.043864 236.797865 239.937038 
L 223.688028 235.166802 
z
" style="fill:#1a03cc;stroke:#1a03cc;stroke-linecap:round;"/>
   </g>
   <g id="patch_7">
    <path d="M 352.476724 142.358327 
L 348.756859 155.794116 
Q 304.590197 101.160663 242.886964 66.159619 
L 243.215072 75.786954 
Q 234.668834 67.231528 227.230001 54.614728 
Q 241.748397 51.987012 254.364892 54.534154 
L 246.159191 59.746155 
Q 311.506035 89.567605 366.181509 139.290129 
L 352.476724 142.358327 
z
" style="fill:#1a03cc;stroke:#1a03cc;stroke-linecap:round;"/>
   </g>
   <g id="text_1">
    <!-- A -->
    <g style="fill:#ffffff;" transform="translate(208.992358 67.036736)scale(0.48 -0.48)">
     <defs>
      <path d="M 2188 4044 
L 1331 1722 
L 3047 1722 
L 2188 4044 
z
M 1831 4666 
L 2547 4666 
L 4325 0 
L 3669 0 
L 3244 1197 
L 1141 1197 
L 716 0 
L 50 0 
L 1831 4666 
z
" id="DejaVuSans-41" transform="scale(0.015625)"/>
     </defs>
     <use xlink:href="#DejaVuSans-41"/>
    </g>
   </g>
   <g id="text_2">
    <!-- B -->
    <g style="fill:#ffffff;" transform="translate(208.943608 305.053264)scale(0.48 -0.48)">
     <defs>
      <path d="M 1259 2228 
L 1259 519 
L 2272 519 
Q 2781 519 3026 730 
Q 3272 941 3272 1375 
Q 3272 1813 3026 2020 
Q 2781 2228 2272 2228 
L 1259 2228 
z
M 1259 4147 
L 1259 2741 
L 2194 2741 
Q 2656 2741 2882 2914 
Q 3109 3088 3109 3444 
Q 3109 3797 2882 3972 
Q 2656 4147 2194 4147 
L 1259 4147 
z
M 628 4666 
L 2241 4666 
Q 2963 4666 3353 4366 
Q 3744 4066 3744 3513 
Q 3744 3084 3544 2831 
Q 3344 2578 2956 2516 
Q 3422 2416 3680 2098 
Q 3938 1781 3938 1306 
Q 3938 681 3513 340 
Q 3088 0 2303 0 
L 628 0 
L 628 4666 
z
" id="DejaVuSans-42" transform="scale(0.015625)"/>
     </defs>
     <use xlink:href="#DejaVuSans-42"/>
    </g>
   </g>
  </g>
 </g>
 <defs>
  <clipPath id="p4bbdccc782">
   <rect height="345.6" width="460.8" x="0" y="0"/>
  </clipPath>
 </defs>
</svg>
