<?xml version="1.0" encoding="utf-8" standalone="no"?>
<!DOCTYPE svg PUBLIC "-//W3C//DTD SVG 1.1//EN"
  "http://www.w3.org/Graphics/SVG/1.1/DTD/svg11.dtd">
<svg height="345.6pt" version="1.1" viewBox="0 0 460.8 345.6" width="460.8pt" xmlns="http://www.w3.org/2000/svg" xmlns:xlink="http://www.w3.org/1999/xlink">
 <metadata>
  <rdf:RDF xmlns:cc="http://creativecommons.org/ns#" xmlns:dc="http://purl.org/dc/elements/1.1/" xmlns:rdf="http://www.w3.org/1999/02/22-rdf-syntax-ns#">
   <cc:Work>
    <dc:type rdf:resource="http://purl.org/dc/dcmitype/StillImage"/>
    <dc:date>2022-07-18T11:45:54.841561</dc:date>
    <dc:format>image/svg+xml</dc:format>
    <dc:creator>
     <cc:Agent>
      <dc:title>Matplotlib v3.4.3, https://matplotlib.org/</dc:title>
     </cc:Agent>
    </dc:creator>
   </cc:Work>
  </rdf:RDF>
 </metadata>
 <defs>
  <style type="text/css">*{stroke-linecap:butt;stroke-linejoin:round;}</style>
 </defs>
 <g id="figure_1">
  <g id="patch_1">
   <path d="M 0 345.6 
L 460.8 345.6 
L 460.8 0 
L 0 0 
z
" style="fill:none;"/>
  </g>
  <g id="axes_1">
   <g id="patch_2">
    <path clip-path="url(#p002ba30075)" d="M 63.78843 196.601653 
C 70.100702 196.601653 76.155289 194.093761 80.61874 189.63031 
C 85.08219 185.16686 87.590083 179.112272 87.590083 172.8 
C 87.590083 166.487728 85.08219 160.43314 80.61874 155.96969 
C 76.155289 151.506239 70.100702 148.998347 63.78843 148.998347 
C 57.476158 148.998347 51.42157 151.506239 46.95812 155.96969 
C 42.494669 160.43314 39.986777 166.487728 39.986777 172.8 
C 39.986777 179.112272 42.494669 185.16686 46.95812 189.63031 
C 51.42157 194.093761 57.476158 196.601653 63.78843 196.601653 
z
" style="fill:#1a03cc;opacity:0.6;stroke:#1a03cc;stroke-linejoin:miter;stroke-width:8;"/>
   </g>
   <g id="patch_3">
    <path clip-path="url(#p002ba30075)" d="M 397.01157 196.601653 
C 403.323842 196.601653 409.37843 194.093761 413.84188 189.63031 
C 418.305331 185.16686 420.813223 179.112272 420.813223 172.8 
C 420.813223 166.487728 418.305331 160.43314 413.84188 155.96969 
C 409.37843 151.506239 403.323842 148.998347 397.01157 148.998347 
C 390.699298 148.998347 384.644711 151.506239 380.18126 155.96969 
C 375.71781 160.43314 373.209917 166.487728 373.209917 172.8 
C 373.209917 179.112272 375.71781 185.16686 380.18126 189.63031 
C 384.644711 194.093761 390.699298 196.601653 397.01157 196.601653 
z
" style="fill:#cc1a1a;opacity:0.6;stroke:#cc1a1a;stroke-linejoin:miter;stroke-width:8;"/>
   </g>
   <g id="patch_4">
    <path clip-path="url(#p002ba30075)" d="M 192.317355 91.87438 
L 268.482645 91.87438 
Q 292.284298 91.87438 292.284298 68.072727 
L 292.284298 39.510744 
Q 292.284298 15.709091 268.482645 15.709091 
L 192.317355 15.709091 
Q 168.515702 15.709091 168.515702 39.510744 
L 168.515702 68.072727 
Q 168.515702 91.87438 192.317355 91.87438 
z
" style="fill:#1a03cc;stroke:#1a03cc;stroke-linejoin:miter;"/>
   </g>
   <g id="patch_5">
    <path clip-path="url(#p002ba30075)" d="M 192.317355 329.890909 
L 268.482645 329.890909 
Q 292.284298 329.890909 292.284298 306.089256 
L 292.284298 277.527273 
Q 292.284298 253.72562 268.482645 253.72562 
L 192.317355 253.72562 
Q 168.515702 253.72562 168.515702 277.527273 
L 168.515702 306.089256 
Q 168.515702 329.890909 192.317355 329.890909 
z
" style="fill:#cc1a1a;stroke:#cc1a1a;stroke-linejoin:miter;"/>
   </g>
   <g id="patch_6">
    <path d="M 103.475019 142.352891 
L 89.765447 139.294887 
Q 144.37203 89.590747 209.645581 59.761237 
L 201.440138 54.552209 
Q 214.05629 51.997388 228.576987 54.617152 
Q 221.143859 67.238198 212.601941 75.798719 
L 212.921426 66.172855 
Q 151.294234 101.179888 107.198463 155.790036 
L 103.475019 142.352891 
z
" style="fill:#1a03cc;stroke:#1a03cc;stroke-linecap:round;"/>
   </g>
   <g id="patch_7">
    <path d="M 357.324981 142.352891 
L 353.601537 155.790036 
Q 309.505766 101.179888 247.878574 66.172855 
L 248.198059 75.798719 
Q 239.656141 67.238198 232.223013 54.617152 
Q 246.74371 51.997388 259.359862 54.552209 
L 251.154419 59.761237 
Q 316.42797 89.590747 371.034553 139.294887 
L 357.324981 142.352891 
z
" style="fill:#1a03cc;stroke:#1a03cc;stroke-linecap:round;"/>
   </g>
   <g id="patch_8">
    <path d="M 232.12183 110.433198 
L 242.564405 101.049512 
Q 253.93152 187.735477 237.673861 271.490793 
L 246.708273 267.924677 
Q 241.362486 279.576293 230.788749 289.844264 
Q 224.848478 276.456916 222.960664 264.453213 
L 230.560069 270.379957 
Q 240.470302 186.556136 219.011993 105.662962 
L 232.12183 110.433198 
z
" style="fill:#cc1a1a;stroke:#cc1a1a;stroke-linecap:round;"/>
   </g>
   <g id="patch_9">
    <path d="M 357.324981 203.247109 
L 371.034553 206.305113 
Q 316.42797 256.009253 251.154419 285.838763 
L 259.359862 291.047791 
Q 246.74371 293.602612 232.223013 290.982848 
Q 239.656141 278.361802 248.198059 269.801281 
L 247.878574 279.427145 
Q 309.505766 244.420112 353.601537 189.809964 
L 357.324981 203.247109 
z
" style="fill:#cc1a1a;stroke:#cc1a1a;stroke-linecap:round;"/>
   </g>
   <g id="text_1">
    <!-- A -->
    <g style="fill:#ffffff;" transform="translate(213.9825 67.036736)scale(0.48 -0.48)">
     <defs>
      <path d="M 2188 4044 
L 1331 1722 
L 3047 1722 
L 2188 4044 
z
M 1831 4666 
L 2547 4666 
L 4325 0 
L 3669 0 
L 3244 1197 
L 1141 1197 
L 716 0 
L 50 0 
L 1831 4666 
z
" id="DejaVuSans-41" transform="scale(0.015625)"/>
     </defs>
     <use xlink:href="#DejaVuSans-41"/>
    </g>
   </g>
   <g id="text_2">
    <!-- B -->
    <g style="fill:#ffffff;" transform="translate(213.93375 305.053264)scale(0.48 -0.48)">
     <defs>
      <path d="M 1259 2228 
L 1259 519 
L 2272 519 
Q 2781 519 3026 730 
Q 3272 941 3272 1375 
Q 3272 1813 3026 2020 
Q 2781 2228 2272 2228 
L 1259 2228 
z
M 1259 4147 
L 1259 2741 
L 2194 2741 
Q 2656 2741 2882 2914 
Q 3109 3088 3109 3444 
Q 3109 3797 2882 3972 
Q 2656 4147 2194 4147 
L 1259 4147 
z
M 628 4666 
L 2241 4666 
Q 2963 4666 3353 4366 
Q 3744 4066 3744 3513 
Q 3744 3084 3544 2831 
Q 3344 2578 2956 2516 
Q 3422 2416 3680 2098 
Q 3938 1781 3938 1306 
Q 3938 681 3513 340 
Q 3088 0 2303 0 
L 628 0 
L 628 4666 
z
" id="DejaVuSans-42" transform="scale(0.015625)"/>
     </defs>
     <use xlink:href="#DejaVuSans-42"/>
    </g>
   </g>
  </g>
 </g>
 <defs>
  <clipPath id="p002ba30075">
   <rect height="345.6" width="460.8" x="0" y="0"/>
  </clipPath>
 </defs>
</svg>
