<?xml version="1.0" encoding="utf-8" standalone="no"?>
<!DOCTYPE svg PUBLIC "-//W3C//DTD SVG 1.1//EN"
  "http://www.w3.org/Graphics/SVG/1.1/DTD/svg11.dtd">
<svg height="345.6pt" version="1.1" viewBox="0 0 460.8 345.6" width="460.8pt" xmlns="http://www.w3.org/2000/svg" xmlns:xlink="http://www.w3.org/1999/xlink">
 <metadata>
  <rdf:RDF xmlns:cc="http://creativecommons.org/ns#" xmlns:dc="http://purl.org/dc/elements/1.1/" xmlns:rdf="http://www.w3.org/1999/02/22-rdf-syntax-ns#">
   <cc:Work>
    <dc:type rdf:resource="http://purl.org/dc/dcmitype/StillImage"/>
    <dc:date>2022-07-18T11:45:54.489612</dc:date>
    <dc:format>image/svg+xml</dc:format>
    <dc:creator>
     <cc:Agent>
      <dc:title>Matplotlib v3.4.3, https://matplotlib.org/</dc:title>
     </cc:Agent>
    </dc:creator>
   </cc:Work>
  </rdf:RDF>
 </metadata>
 <defs>
  <style type="text/css">*{stroke-linecap:butt;stroke-linejoin:round;}</style>
 </defs>
 <g id="figure_1">
  <g id="patch_1">
   <path d="M 0 345.6 
L 460.8 345.6 
L 460.8 0 
L 0 0 
z
" style="fill:none;"/>
  </g>
  <g id="axes_1">
   <g id="patch_2">
    <path clip-path="url(#pf9dc76fafe)" d="M 45.587166 197.441711 
C 52.122224 197.441711 58.390503 194.845305 63.011487 190.224321 
C 67.632471 185.603337 70.228877 179.335058 70.228877 172.8 
C 70.228877 166.264942 67.632471 159.996663 63.011487 155.375679 
C 58.390503 150.754695 52.122224 148.158289 45.587166 148.158289 
C 39.052108 148.158289 32.783829 150.754695 28.162845 155.375679 
C 23.541861 159.996663 20.945455 166.264942 20.945455 172.8 
C 20.945455 179.335058 23.541861 185.603337 28.162845 190.224321 
C 32.783829 194.845305 39.052108 197.441711 45.587166 197.441711 
z
" style="fill:#1a03cc;opacity:0.6;stroke:#1a03cc;stroke-linejoin:miter;stroke-width:8;"/>
   </g>
   <g id="patch_3">
    <path clip-path="url(#pf9dc76fafe)" d="M 390.571123 222.083422 
C 403.641239 222.083422 416.177797 216.89061 425.419765 207.648642 
C 434.661733 198.406674 439.854545 185.870116 439.854545 172.8 
C 439.854545 159.729884 434.661733 147.193326 425.419765 137.951358 
C 416.177797 128.70939 403.641239 123.516578 390.571123 123.516578 
C 377.501007 123.516578 364.964449 128.70939 355.722481 137.951358 
C 346.480513 147.193326 341.287701 159.729884 341.287701 172.8 
C 341.287701 185.870116 346.480513 198.406674 355.722481 207.648642 
C 364.964449 216.89061 377.501007 222.083422 390.571123 222.083422 
z
" style="fill:#cc1a1a;opacity:0.6;stroke:#cc1a1a;stroke-linejoin:miter;stroke-width:8;"/>
   </g>
   <g id="patch_4">
    <path clip-path="url(#pf9dc76fafe)" d="M 178.652406 89.018182 
L 257.505882 89.018182 
Q 282.147594 89.018182 282.147594 64.376471 
L 282.147594 34.806417 
Q 282.147594 10.164706 257.505882 10.164706 
L 178.652406 10.164706 
Q 154.010695 10.164706 154.010695 34.806417 
L 154.010695 64.376471 
Q 154.010695 89.018182 178.652406 89.018182 
z
" style="fill:#1a03cc;stroke:#1a03cc;stroke-linejoin:miter;"/>
   </g>
   <g id="patch_5">
    <path clip-path="url(#pf9dc76fafe)" d="M 178.652406 335.435294 
L 257.505882 335.435294 
Q 282.147594 335.435294 282.147594 310.793583 
L 282.147594 281.223529 
Q 282.147594 256.581818 257.505882 256.581818 
L 178.652406 256.581818 
Q 154.010695 256.581818 154.010695 281.223529 
L 154.010695 310.793583 
Q 154.010695 335.435294 178.652406 335.435294 
z
" style="fill:#cc1a1a;stroke:#cc1a1a;stroke-linejoin:miter;"/>
   </g>
   <g id="patch_6">
    <path d="M 86.44615 141.511813 
L 72.74029 138.454572 
Q 129.374486 86.592233 197.326224 55.540027 
L 189.132368 50.314465 
Q 201.741656 47.792236 216.257437 50.416093 
Q 208.822483 63.035561 200.249286 71.584494 
L 200.591051 61.957261 
Q 136.282537 98.193683 90.175827 154.947056 
L 86.44615 141.511813 
z
" style="fill:#1a03cc;stroke:#1a03cc;stroke-linecap:round;"/>
   </g>
   <g id="patch_7">
    <path d="M 349.712138 141.511813 
L 345.982461 154.947056 
Q 299.875752 98.193683 235.567238 61.957261 
L 235.909002 71.584494 
Q 227.335806 63.035561 219.900852 50.416093 
Q 234.416633 47.792236 247.025921 50.314465 
L 238.832065 55.540027 
Q 306.783803 86.592233 363.417999 138.454572 
L 349.712138 141.511813 
z
" style="fill:#1a03cc;stroke:#1a03cc;stroke-linecap:round;"/>
   </g>
   <g id="text_1">
    <!-- A -->
    <g style="fill:#ffffff;" transform="translate(201.661644 62.836444)scale(0.48 -0.48)">
     <defs>
      <path d="M 2188 4044 
L 1331 1722 
L 3047 1722 
L 2188 4044 
z
M 1831 4666 
L 2547 4666 
L 4325 0 
L 3669 0 
L 3244 1197 
L 1141 1197 
L 716 0 
L 50 0 
L 1831 4666 
z
" id="DejaVuSans-41" transform="scale(0.015625)"/>
     </defs>
     <use xlink:href="#DejaVuSans-41"/>
    </g>
   </g>
   <g id="text_2">
    <!-- B -->
    <g style="fill:#ffffff;" transform="translate(201.612894 309.253556)scale(0.48 -0.48)">
     <defs>
      <path d="M 1259 2228 
L 1259 519 
L 2272 519 
Q 2781 519 3026 730 
Q 3272 941 3272 1375 
Q 3272 1813 3026 2020 
Q 2781 2228 2272 2228 
L 1259 2228 
z
M 1259 4147 
L 1259 2741 
L 2194 2741 
Q 2656 2741 2882 2914 
Q 3109 3088 3109 3444 
Q 3109 3797 2882 3972 
Q 2656 4147 2194 4147 
L 1259 4147 
z
M 628 4666 
L 2241 4666 
Q 2963 4666 3353 4366 
Q 3744 4066 3744 3513 
Q 3744 3084 3544 2831 
Q 3344 2578 2956 2516 
Q 3422 2416 3680 2098 
Q 3938 1781 3938 1306 
Q 3938 681 3513 340 
Q 3088 0 2303 0 
L 628 0 
L 628 4666 
z
" id="DejaVuSans-42" transform="scale(0.015625)"/>
     </defs>
     <use xlink:href="#DejaVuSans-42"/>
    </g>
   </g>
  </g>
 </g>
 <defs>
  <clipPath id="pf9dc76fafe">
   <rect height="345.6" width="460.8" x="0" y="0"/>
  </clipPath>
 </defs>
</svg>
