<?xml version="1.0" encoding="utf-8" standalone="no"?>
<!DOCTYPE svg PUBLIC "-//W3C//DTD SVG 1.1//EN"
  "http://www.w3.org/Graphics/SVG/1.1/DTD/svg11.dtd">
<svg height="345.6pt" version="1.1" viewBox="0 0 460.8 345.6" width="460.8pt" xmlns="http://www.w3.org/2000/svg" xmlns:xlink="http://www.w3.org/1999/xlink">
 <metadata>
  <rdf:RDF xmlns:cc="http://creativecommons.org/ns#" xmlns:dc="http://purl.org/dc/elements/1.1/" xmlns:rdf="http://www.w3.org/1999/02/22-rdf-syntax-ns#">
   <cc:Work>
    <dc:type rdf:resource="http://purl.org/dc/dcmitype/StillImage"/>
    <dc:date>2022-07-18T11:45:55.367068</dc:date>
    <dc:format>image/svg+xml</dc:format>
    <dc:creator>
     <cc:Agent>
      <dc:title>Matplotlib v3.4.3, https://matplotlib.org/</dc:title>
     </cc:Agent>
    </dc:creator>
   </cc:Work>
  </rdf:RDF>
 </metadata>
 <defs>
  <style type="text/css">*{stroke-linecap:butt;stroke-linejoin:round;}</style>
 </defs>
 <g id="figure_1">
  <g id="patch_1">
   <path d="M 0 345.6 
L 460.8 345.6 
L 460.8 0 
L 0 0 
z
" style="fill:none;"/>
  </g>
  <g id="axes_1">
   <g id="patch_2">
    <path clip-path="url(#pde1faa74f1)" d="M 70.228877 222.083422 
C 83.298993 222.083422 95.835551 216.89061 105.077519 207.648642 
C 114.319487 198.406674 119.512299 185.870116 119.512299 172.8 
C 119.512299 159.729884 114.319487 147.193326 105.077519 137.951358 
C 95.835551 128.70939 83.298993 123.516578 70.228877 123.516578 
C 57.158761 123.516578 44.622203 128.70939 35.380235 137.951358 
C 26.138267 147.193326 20.945455 159.729884 20.945455 172.8 
C 20.945455 185.870116 26.138267 198.406674 35.380235 207.648642 
C 44.622203 216.89061 57.158761 222.083422 70.228877 222.083422 
z
" style="fill:#1a03cc;opacity:0.6;stroke:#1a03cc;stroke-linejoin:miter;stroke-width:8;"/>
   </g>
   <g id="patch_3">
    <path clip-path="url(#pde1faa74f1)" d="M 415.212834 197.441711 
C 421.747892 197.441711 428.016171 194.845305 432.637155 190.224321 
C 437.258139 185.603337 439.854545 179.335058 439.854545 172.8 
C 439.854545 166.264942 437.258139 159.996663 432.637155 155.375679 
C 428.016171 150.754695 421.747892 148.158289 415.212834 148.158289 
C 408.677776 148.158289 402.409497 150.754695 397.788513 155.375679 
C 393.167529 159.996663 390.571123 166.264942 390.571123 172.8 
C 390.571123 179.335058 393.167529 185.603337 397.788513 190.224321 
C 402.409497 194.845305 408.677776 197.441711 415.212834 197.441711 
z
" style="fill:#cc1a1a;opacity:0.6;stroke:#cc1a1a;stroke-linejoin:miter;stroke-width:8;"/>
   </g>
   <g id="patch_4">
    <path clip-path="url(#pde1faa74f1)" d="M 203.294118 89.018182 
L 282.147594 89.018182 
Q 306.789305 89.018182 306.789305 64.376471 
L 306.789305 34.806417 
Q 306.789305 10.164706 282.147594 10.164706 
L 203.294118 10.164706 
Q 178.652406 10.164706 178.652406 34.806417 
L 178.652406 64.376471 
Q 178.652406 89.018182 203.294118 89.018182 
z
" style="fill:#1a03cc;stroke:#1a03cc;stroke-linejoin:miter;"/>
   </g>
   <g id="patch_5">
    <path clip-path="url(#pde1faa74f1)" d="M 203.294118 335.435294 
L 282.147594 335.435294 
Q 306.789305 335.435294 306.789305 310.793583 
L 306.789305 281.223529 
Q 306.789305 256.581818 282.147594 256.581818 
L 203.294118 256.581818 
Q 178.652406 256.581818 178.652406 281.223529 
L 178.652406 310.793583 
Q 178.652406 335.435294 203.294118 335.435294 
z
" style="fill:#cc1a1a;stroke:#cc1a1a;stroke-linejoin:miter;"/>
   </g>
   <g id="patch_6">
    <path d="M 111.087862 141.511813 
L 97.382001 138.454572 
Q 154.016197 86.592233 221.967935 55.540027 
L 213.774079 50.314465 
Q 226.383367 47.792236 240.899148 50.416093 
Q 233.464194 63.035561 224.890998 71.584494 
L 225.232762 61.957261 
Q 160.924248 98.193683 114.817539 154.947056 
L 111.087862 141.511813 
z
" style="fill:#1a03cc;stroke:#1a03cc;stroke-linecap:round;"/>
   </g>
   <g id="patch_7">
    <path d="M 374.35385 141.511813 
L 370.624173 154.947056 
Q 324.517463 98.193683 260.208949 61.957261 
L 260.550714 71.584494 
Q 251.977517 63.035561 244.542563 50.416093 
Q 259.058344 47.792236 271.667632 50.314465 
L 263.473776 55.540027 
Q 331.425514 86.592233 388.05971 138.454572 
L 374.35385 141.511813 
z
" style="fill:#1a03cc;stroke:#1a03cc;stroke-linecap:round;"/>
   </g>
   <g id="patch_8">
    <path d="M 111.087862 204.088187 
L 114.817539 190.652944 
Q 160.924248 247.406317 225.232762 283.642739 
L 224.890998 274.015506 
Q 233.464194 282.564439 240.899148 295.183907 
Q 226.383367 297.807764 213.774079 295.285535 
L 221.967935 290.059973 
Q 154.016197 259.007767 97.382001 207.145428 
L 111.087862 204.088187 
z
" style="fill:#cc1a1a;stroke:#cc1a1a;stroke-linecap:round;"/>
   </g>
   <g id="patch_9">
    <path d="M 244.445353 107.911605 
L 254.885696 98.530857 
Q 266.923875 188.587143 250.008842 275.700469 
L 259.048866 272.150537 
Q 253.683855 283.782379 243.109455 294.046022 
Q 237.171394 280.657029 235.307559 268.636236 
L 242.896687 274.579197 
Q 253.461156 187.391795 231.333882 103.147352 
L 244.445353 107.911605 
z
" style="fill:#cc1a1a;stroke:#cc1a1a;stroke-linecap:round;"/>
   </g>
   <g id="patch_10">
    <path d="M 374.35385 204.088187 
L 388.05971 207.145428 
Q 331.425514 259.007767 263.473776 290.059973 
L 271.667632 295.285535 
Q 259.058344 297.807764 244.542563 295.183907 
Q 251.977517 282.564439 260.550714 274.015506 
L 260.208949 283.642739 
Q 324.517463 247.406317 370.624173 190.652944 
L 374.35385 204.088187 
z
" style="fill:#cc1a1a;stroke:#cc1a1a;stroke-linecap:round;"/>
   </g>
   <g id="text_1">
    <!-- A -->
    <g style="fill:#ffffff;" transform="translate(226.303356 62.836444)scale(0.48 -0.48)">
     <defs>
      <path d="M 2188 4044 
L 1331 1722 
L 3047 1722 
L 2188 4044 
z
M 1831 4666 
L 2547 4666 
L 4325 0 
L 3669 0 
L 3244 1197 
L 1141 1197 
L 716 0 
L 50 0 
L 1831 4666 
z
" id="DejaVuSans-41" transform="scale(0.015625)"/>
     </defs>
     <use xlink:href="#DejaVuSans-41"/>
    </g>
   </g>
   <g id="text_2">
    <!-- B -->
    <g style="fill:#ffffff;" transform="translate(226.254606 309.253556)scale(0.48 -0.48)">
     <defs>
      <path d="M 1259 2228 
L 1259 519 
L 2272 519 
Q 2781 519 3026 730 
Q 3272 941 3272 1375 
Q 3272 1813 3026 2020 
Q 2781 2228 2272 2228 
L 1259 2228 
z
M 1259 4147 
L 1259 2741 
L 2194 2741 
Q 2656 2741 2882 2914 
Q 3109 3088 3109 3444 
Q 3109 3797 2882 3972 
Q 2656 4147 2194 4147 
L 1259 4147 
z
M 628 4666 
L 2241 4666 
Q 2963 4666 3353 4366 
Q 3744 4066 3744 3513 
Q 3744 3084 3544 2831 
Q 3344 2578 2956 2516 
Q 3422 2416 3680 2098 
Q 3938 1781 3938 1306 
Q 3938 681 3513 340 
Q 3088 0 2303 0 
L 628 0 
L 628 4666 
z
" id="DejaVuSans-42" transform="scale(0.015625)"/>
     </defs>
     <use xlink:href="#DejaVuSans-42"/>
    </g>
   </g>
  </g>
 </g>
 <defs>
  <clipPath id="pde1faa74f1">
   <rect height="345.6" width="460.8" x="0" y="0"/>
  </clipPath>
 </defs>
</svg>
