<?xml version="1.0" encoding="utf-8" standalone="no"?>
<!DOCTYPE svg PUBLIC "-//W3C//DTD SVG 1.1//EN"
  "http://www.w3.org/Graphics/SVG/1.1/DTD/svg11.dtd">
<svg height="345.6pt" version="1.1" viewBox="0 0 460.8 345.6" width="460.8pt" xmlns="http://www.w3.org/2000/svg" xmlns:xlink="http://www.w3.org/1999/xlink">
 <metadata>
  <rdf:RDF xmlns:cc="http://creativecommons.org/ns#" xmlns:dc="http://purl.org/dc/elements/1.1/" xmlns:rdf="http://www.w3.org/1999/02/22-rdf-syntax-ns#">
   <cc:Work>
    <dc:type rdf:resource="http://purl.org/dc/dcmitype/StillImage"/>
    <dc:date>2022-07-18T11:45:55.503974</dc:date>
    <dc:format>image/svg+xml</dc:format>
    <dc:creator>
     <cc:Agent>
      <dc:title>Matplotlib v3.4.3, https://matplotlib.org/</dc:title>
     </cc:Agent>
    </dc:creator>
   </cc:Work>
  </rdf:RDF>
 </metadata>
 <defs>
  <style type="text/css">*{stroke-linecap:butt;stroke-linejoin:round;}</style>
 </defs>
 <g id="figure_1">
  <g id="patch_1">
   <path d="M 0 345.6 
L 460.8 345.6 
L 460.8 0 
L 0 0 
z
" style="fill:none;"/>
  </g>
  <g id="axes_1">
   <g id="patch_2">
    <path clip-path="url(#p02622a4be7)" d="M 56.872397 196.601653 
C 63.18467 196.601653 69.239257 194.093761 73.702708 189.63031 
C 78.166158 185.16686 80.67405 179.112272 80.67405 172.8 
C 80.67405 166.487728 78.166158 160.43314 73.702708 155.96969 
C 69.239257 151.506239 63.18467 148.998347 56.872397 148.998347 
C 50.560125 148.998347 44.505538 151.506239 40.042087 155.96969 
C 35.578637 160.43314 33.070745 166.487728 33.070745 172.8 
C 33.070745 179.112272 35.578637 185.16686 40.042087 189.63031 
C 44.505538 194.093761 50.560125 196.601653 56.872397 196.601653 
z
" style="fill:#1a03cc;opacity:0.6;stroke:#1a03cc;stroke-linejoin:miter;stroke-width:8;"/>
   </g>
   <g id="patch_3">
    <path clip-path="url(#p02622a4be7)" d="M 390.095538 210.433718 
C 400.076116 210.433718 409.64926 206.468392 416.706595 199.411057 
C 423.76393 192.353722 427.729255 182.780579 427.729255 172.8 
C 427.729255 162.819421 423.76393 153.246278 416.706595 146.188943 
C 409.64926 139.131608 400.076116 135.166282 390.095538 135.166282 
C 380.114959 135.166282 370.541816 139.131608 363.484481 146.188943 
C 356.427146 153.246278 352.46182 162.819421 352.46182 172.8 
C 352.46182 182.780579 356.427146 192.353722 363.484481 199.411057 
C 370.541816 206.468392 380.114959 210.433718 390.095538 210.433718 
z
" style="fill:#cc1a1a;opacity:0.6;stroke:#cc1a1a;stroke-linejoin:miter;stroke-width:8;"/>
   </g>
   <g id="patch_4">
    <path clip-path="url(#p02622a4be7)" d="M 185.401323 91.87438 
L 261.566612 91.87438 
Q 285.368265 91.87438 285.368265 68.072727 
L 285.368265 39.510744 
Q 285.368265 15.709091 261.566612 15.709091 
L 185.401323 15.709091 
Q 161.59967 15.709091 161.59967 39.510744 
L 161.59967 68.072727 
Q 161.59967 91.87438 185.401323 91.87438 
z
" style="fill:#1a03cc;stroke:#1a03cc;stroke-linejoin:miter;"/>
   </g>
   <g id="patch_5">
    <path clip-path="url(#p02622a4be7)" d="M 185.401323 329.890909 
L 261.566612 329.890909 
Q 285.368265 329.890909 285.368265 306.089256 
L 285.368265 277.527273 
Q 285.368265 253.72562 261.566612 253.72562 
L 185.401323 253.72562 
Q 161.59967 253.72562 161.59967 277.527273 
L 161.59967 306.089256 
Q 161.59967 329.890909 185.401323 329.890909 
z
" style="fill:#cc1a1a;stroke:#cc1a1a;stroke-linejoin:miter;"/>
   </g>
   <g id="patch_6">
    <path d="M 96.558987 142.352891 
L 82.849414 139.294887 
Q 137.455998 89.590747 202.729549 59.761237 
L 194.524106 54.552209 
Q 207.140258 51.997388 221.660955 54.617152 
Q 214.227826 67.238198 205.685908 75.798719 
L 206.005393 66.172855 
Q 144.378201 101.179888 100.28243 155.790036 
L 96.558987 142.352891 
z
" style="fill:#1a03cc;stroke:#1a03cc;stroke-linecap:round;"/>
   </g>
   <g id="patch_7">
    <path d="M 221.762137 235.166802 
L 211.319563 244.550488 
Q 199.952448 157.864523 216.210106 74.109207 
L 207.175694 77.675323 
Q 212.521481 66.023707 223.095219 55.755736 
Q 229.035489 69.143084 230.923303 81.146787 
L 223.323899 75.220043 
Q 213.413666 159.043864 234.871974 239.937038 
L 221.762137 235.166802 
z
" style="fill:#1a03cc;stroke:#1a03cc;stroke-linecap:round;"/>
   </g>
   <g id="text_1">
    <!-- A -->
    <g style="fill:#ffffff;" transform="translate(207.066468 67.036736)scale(0.48 -0.48)">
     <defs>
      <path d="M 2188 4044 
L 1331 1722 
L 3047 1722 
L 2188 4044 
z
M 1831 4666 
L 2547 4666 
L 4325 0 
L 3669 0 
L 3244 1197 
L 1141 1197 
L 716 0 
L 50 0 
L 1831 4666 
z
" id="DejaVuSans-41" transform="scale(0.015625)"/>
     </defs>
     <use xlink:href="#DejaVuSans-41"/>
    </g>
   </g>
   <g id="text_2">
    <!-- B -->
    <g style="fill:#ffffff;" transform="translate(207.017718 305.053264)scale(0.48 -0.48)">
     <defs>
      <path d="M 1259 2228 
L 1259 519 
L 2272 519 
Q 2781 519 3026 730 
Q 3272 941 3272 1375 
Q 3272 1813 3026 2020 
Q 2781 2228 2272 2228 
L 1259 2228 
z
M 1259 4147 
L 1259 2741 
L 2194 2741 
Q 2656 2741 2882 2914 
Q 3109 3088 3109 3444 
Q 3109 3797 2882 3972 
Q 2656 4147 2194 4147 
L 1259 4147 
z
M 628 4666 
L 2241 4666 
Q 2963 4666 3353 4366 
Q 3744 4066 3744 3513 
Q 3744 3084 3544 2831 
Q 3344 2578 2956 2516 
Q 3422 2416 3680 2098 
Q 3938 1781 3938 1306 
Q 3938 681 3513 340 
Q 3088 0 2303 0 
L 628 0 
L 628 4666 
z
" id="DejaVuSans-42" transform="scale(0.015625)"/>
     </defs>
     <use xlink:href="#DejaVuSans-42"/>
    </g>
   </g>
  </g>
 </g>
 <defs>
  <clipPath id="p02622a4be7">
   <rect height="345.6" width="460.8" x="0" y="0"/>
  </clipPath>
 </defs>
</svg>
