<?xml version="1.0" encoding="utf-8" standalone="no"?>
<!DOCTYPE svg PUBLIC "-//W3C//DTD SVG 1.1//EN"
  "http://www.w3.org/Graphics/SVG/1.1/DTD/svg11.dtd">
<!-- Created with matplotlib (https://matplotlib.org/) -->
<svg height="345.6pt" version="1.1" viewBox="0 0 460.8 345.6" width="460.8pt" xmlns="http://www.w3.org/2000/svg" xmlns:xlink="http://www.w3.org/1999/xlink">
 <defs>
  <style type="text/css">
*{stroke-linecap:butt;stroke-linejoin:round;}
  </style>
 </defs>
 <g id="figure_1">
  <g id="patch_1">
   <path d="M 0 345.6 
L 460.8 345.6 
L 460.8 0 
L 0 0 
z
" style="fill:none;"/>
  </g>
  <g id="axes_1">
   <g id="patch_2">
    <path clip-path="url(#p3efa3d85e3)" d="M 63.78843 196.601653 
C 70.100702 196.601653 76.155289 194.093761 80.61874 189.63031 
C 85.08219 185.16686 87.590083 179.112272 87.590083 172.8 
C 87.590083 166.487728 85.08219 160.43314 80.61874 155.96969 
C 76.155289 151.506239 70.100702 148.998347 63.78843 148.998347 
C 57.476158 148.998347 51.42157 151.506239 46.95812 155.96969 
C 42.494669 160.43314 39.986777 166.487728 39.986777 172.8 
C 39.986777 179.112272 42.494669 185.16686 46.95812 189.63031 
C 51.42157 194.093761 57.476158 196.601653 63.78843 196.601653 
z
" style="fill:#1a03cc;opacity:0.6;stroke:#1a03cc;stroke-linejoin:miter;stroke-width:8;"/>
   </g>
   <g id="patch_3">
    <path clip-path="url(#p3efa3d85e3)" d="M 397.01157 196.601653 
C 403.323842 196.601653 409.37843 194.093761 413.84188 189.63031 
C 418.305331 185.16686 420.813223 179.112272 420.813223 172.8 
C 420.813223 166.487728 418.305331 160.43314 413.84188 155.96969 
C 409.37843 151.506239 403.323842 148.998347 397.01157 148.998347 
C 390.699298 148.998347 384.644711 151.506239 380.18126 155.96969 
C 375.71781 160.43314 373.209917 166.487728 373.209917 172.8 
C 373.209917 179.112272 375.71781 185.16686 380.18126 189.63031 
C 384.644711 194.093761 390.699298 196.601653 397.01157 196.601653 
z
" style="fill:#cc1a1a;opacity:0.6;stroke:#cc1a1a;stroke-linejoin:miter;stroke-width:8;"/>
   </g>
   <g id="patch_4">
    <path clip-path="url(#p3efa3d85e3)" d="M 192.317355 91.87438 
L 268.482645 91.87438 
Q 292.284298 91.87438 292.284298 68.072727 
L 292.284298 39.510744 
Q 292.284298 15.709091 268.482645 15.709091 
L 192.317355 15.709091 
Q 168.515702 15.709091 168.515702 39.510744 
L 168.515702 68.072727 
Q 168.515702 91.87438 192.317355 91.87438 
z
" style="fill:#1a03cc;stroke:#1a03cc;stroke-linejoin:miter;"/>
   </g>
   <g id="patch_5">
    <path clip-path="url(#p3efa3d85e3)" d="M 192.317355 329.890909 
L 268.482645 329.890909 
Q 292.284298 329.890909 292.284298 306.089256 
L 292.284298 277.527273 
Q 292.284298 253.72562 268.482645 253.72562 
L 192.317355 253.72562 
Q 168.515702 253.72562 168.515702 277.527273 
L 168.515702 306.089256 
Q 168.515702 329.890909 192.317355 329.890909 
z
" style="fill:#cc1a1a;stroke:#cc1a1a;stroke-linejoin:miter;"/>
   </g>
   <g id="patch_6">
    <path d="M 103.475019 142.352891 
L 89.765447 139.294887 
Q 144.37203 89.590747 209.645581 59.761237 
L 201.440138 54.552209 
Q 214.05629 51.997388 228.576987 54.617152 
Q 221.143859 67.238198 212.601941 75.798719 
L 212.921426 66.172855 
Q 151.294234 101.179888 107.198463 155.790036 
L 103.475019 142.352891 
z
" style="fill:#1a03cc;stroke:#1a03cc;stroke-linecap:round;"/>
   </g>
   <g id="patch_7">
    <path d="M 357.324981 203.247109 
L 371.034553 206.305113 
Q 316.42797 256.009253 251.154419 285.838763 
L 259.359862 291.047791 
Q 246.74371 293.602612 232.223013 290.982848 
Q 239.656141 278.361802 248.198059 269.801281 
L 247.878574 279.427145 
Q 309.505766 244.420112 353.601537 189.809964 
L 357.324981 203.247109 
z
" style="fill:#cc1a1a;stroke:#cc1a1a;stroke-linecap:round;"/>
   </g>
   <g id="text_1">
    <!-- a -->
    <defs>
     <path d="M 34.28125 27.484375 
Q 23.390625 27.484375 19.1875 25 
Q 14.984375 22.515625 14.984375 16.5 
Q 14.984375 11.71875 18.140625 8.90625 
Q 21.296875 6.109375 26.703125 6.109375 
Q 34.1875 6.109375 38.703125 11.40625 
Q 43.21875 16.703125 43.21875 25.484375 
L 43.21875 27.484375 
z
M 52.203125 31.203125 
L 52.203125 0 
L 43.21875 0 
L 43.21875 8.296875 
Q 40.140625 3.328125 35.546875 0.953125 
Q 30.953125 -1.421875 24.3125 -1.421875 
Q 15.921875 -1.421875 10.953125 3.296875 
Q 6 8.015625 6 15.921875 
Q 6 25.140625 12.171875 29.828125 
Q 18.359375 34.515625 30.609375 34.515625 
L 43.21875 34.515625 
L 43.21875 35.40625 
Q 43.21875 41.609375 39.140625 45 
Q 35.0625 48.390625 27.6875 48.390625 
Q 23 48.390625 18.546875 47.265625 
Q 14.109375 46.140625 10.015625 43.890625 
L 10.015625 52.203125 
Q 14.9375 54.109375 19.578125 55.046875 
Q 24.21875 56 28.609375 56 
Q 40.484375 56 46.34375 49.84375 
Q 52.203125 43.703125 52.203125 31.203125 
z
" id="DejaVuSans-97"/>
    </defs>
    <g style="fill:#ffffff;" transform="translate(49.08093 186.045)scale(0.48 -0.48)">
     <use xlink:href="#DejaVuSans-97"/>
    </g>
   </g>
   <g id="text_2">
    <!-- b -->
    <defs>
     <path d="M 48.6875 27.296875 
Q 48.6875 37.203125 44.609375 42.84375 
Q 40.53125 48.484375 33.40625 48.484375 
Q 26.265625 48.484375 22.1875 42.84375 
Q 18.109375 37.203125 18.109375 27.296875 
Q 18.109375 17.390625 22.1875 11.75 
Q 26.265625 6.109375 33.40625 6.109375 
Q 40.53125 6.109375 44.609375 11.75 
Q 48.6875 17.390625 48.6875 27.296875 
z
M 18.109375 46.390625 
Q 20.953125 51.265625 25.265625 53.625 
Q 29.59375 56 35.59375 56 
Q 45.5625 56 51.78125 48.09375 
Q 58.015625 40.1875 58.015625 27.296875 
Q 58.015625 14.40625 51.78125 6.484375 
Q 45.5625 -1.421875 35.59375 -1.421875 
Q 29.59375 -1.421875 25.265625 0.953125 
Q 20.953125 3.328125 18.109375 8.203125 
L 18.109375 0 
L 9.078125 0 
L 9.078125 75.984375 
L 18.109375 75.984375 
z
" id="DejaVuSans-98"/>
    </defs>
    <g style="fill:#ffffff;" transform="translate(381.77532 186.045)scale(0.48 -0.48)">
     <use xlink:href="#DejaVuSans-98"/>
    </g>
   </g>
   <g id="text_3">
    <!-- A -->
    <defs>
     <path d="M 34.1875 63.1875 
L 20.796875 26.90625 
L 47.609375 26.90625 
z
M 28.609375 72.90625 
L 39.796875 72.90625 
L 67.578125 0 
L 57.328125 0 
L 50.6875 18.703125 
L 17.828125 18.703125 
L 11.1875 0 
L 0.78125 0 
z
" id="DejaVuSans-65"/>
    </defs>
    <g style="fill:#ffffff;" transform="translate(213.9825 67.036736)scale(0.48 -0.48)">
     <use xlink:href="#DejaVuSans-65"/>
    </g>
   </g>
   <g id="text_4">
    <!-- B -->
    <defs>
     <path d="M 19.671875 34.8125 
L 19.671875 8.109375 
L 35.5 8.109375 
Q 43.453125 8.109375 47.28125 11.40625 
Q 51.125 14.703125 51.125 21.484375 
Q 51.125 28.328125 47.28125 31.5625 
Q 43.453125 34.8125 35.5 34.8125 
z
M 19.671875 64.796875 
L 19.671875 42.828125 
L 34.28125 42.828125 
Q 41.5 42.828125 45.03125 45.53125 
Q 48.578125 48.25 48.578125 53.8125 
Q 48.578125 59.328125 45.03125 62.0625 
Q 41.5 64.796875 34.28125 64.796875 
z
M 9.8125 72.90625 
L 35.015625 72.90625 
Q 46.296875 72.90625 52.390625 68.21875 
Q 58.5 63.53125 58.5 54.890625 
Q 58.5 48.1875 55.375 44.234375 
Q 52.25 40.28125 46.1875 39.3125 
Q 53.46875 37.75 57.5 32.78125 
Q 61.53125 27.828125 61.53125 20.40625 
Q 61.53125 10.640625 54.890625 5.3125 
Q 48.25 0 35.984375 0 
L 9.8125 0 
z
" id="DejaVuSans-66"/>
    </defs>
    <g style="fill:#ffffff;" transform="translate(213.93375 305.053264)scale(0.48 -0.48)">
     <use xlink:href="#DejaVuSans-66"/>
    </g>
   </g>
  </g>
 </g>
 <defs>
  <clipPath id="p3efa3d85e3">
   <rect height="345.6" width="460.8" x="0" y="0"/>
  </clipPath>
 </defs>
</svg>
