<?xml version="1.0" encoding="UTF-8" standalone="no"?>
<!DOCTYPE svg PUBLIC "-//W3C//DTD SVG 1.1//EN"
 "http://www.w3.org/Graphics/SVG/1.1/DTD/svg11.dtd">
<!-- Generated by graphviz version 2.40.1 (20161225.0304)
 -->
<!-- Title: %3 Pages: 1 -->
<svg width="2400pt" height="602pt"
 viewBox="0.00 0.00 864.00 216.57" xmlns="http://www.w3.org/2000/svg" xmlns:xlink="http://www.w3.org/1999/xlink">
<g id="graph0" class="graph" transform="scale(1.2692 1.2692) rotate(0) translate(4 470)">
<title>%3</title>
<polygon fill="#ffffff" stroke="transparent" points="-4,4 -4,-470 1887,-470 1887,4 -4,4"/>
<!-- 25 -->
<g id="node1" class="node">
<title>25</title>
<ellipse fill="#adff2f" stroke="#adff2f" cx="94" cy="-211" rx="90" ry="90"/>
<ellipse fill="none" stroke="#adff2f" cx="94" cy="-211" rx="94" ry="94"/>
<image xlink:href="./pics/100001.png" width="180px" height="134.609px" preserveAspectRatio="xMinYMin meet" x="4" y="-278.304"/>
</g>
<!-- 1 -->
<g id="node2" class="node">
<title>1</title>
<ellipse fill="#c0c0c0" stroke="#c0c0c0" cx="438" cy="-332" rx="90" ry="90"/>
<image xlink:href="./pics/000001.png" width="180px" height="134.609px" preserveAspectRatio="xMinYMin meet" x="348" y="-399.304"/>
</g>
<!-- 25&#45;&gt;1 -->
<g id="edge11" class="edge">
<title>25&#45;&gt;1</title>
<path fill="none" stroke="#0000ff" stroke-width="3" d="M183.0359,-242.3179C232.2223,-259.6189 293.3115,-281.1067 343.3614,-298.7114"/>
<polygon fill="#0000ff" stroke="#0000ff" stroke-width="3" points="342.2998,-302.0482 352.8947,-302.0647 344.6226,-295.4448 342.2998,-302.0482"/>
<text text-anchor="middle" x="268" y="-306.6" font-family="Times,serif" font-size="48.00" fill="#0000ff">drop a</text>
</g>
<!-- 24 -->
<g id="node8" class="node">
<title>24</title>
<ellipse fill="#c0c0c0" stroke="#c0c0c0" cx="438" cy="-90" rx="90" ry="90"/>
<image xlink:href="./pics/100000.png" width="180px" height="134.609px" preserveAspectRatio="xMinYMin meet" x="348" y="-157.304"/>
</g>
<!-- 25&#45;&gt;24 -->
<g id="edge14" class="edge">
<title>25&#45;&gt;24</title>
<path fill="none" stroke="#ff0000" stroke-width="3" d="M183.0359,-179.6821C232.2223,-162.3811 293.3115,-140.8933 343.3614,-123.2886"/>
<polygon fill="#ff0000" stroke="#ff0000" stroke-width="3" points="344.6226,-126.5552 352.8947,-119.9353 342.2998,-119.9518 344.6226,-126.5552"/>
<text text-anchor="middle" x="268" y="-182.6" font-family="Times,serif" font-size="48.00" fill="#ff0000">drop b</text>
</g>
<!-- 1&#45;&gt;1 -->
<g id="edge1" class="edge">
<title>1&#45;&gt;1</title>
<path fill="none" stroke="#0000ff" stroke-width="3" d="M408.6464,-417.1162C412.942,-430.7012 422.7266,-440 438,-440 449.4551,-440 457.8227,-434.7694 463.1027,-426.4229"/>
<polygon fill="#0000ff" stroke="#0000ff" stroke-width="3" points="466.3825,-427.6664 467.3536,-417.1162 460.0153,-424.7581 466.3825,-427.6664"/>
<text text-anchor="middle" x="438" y="-446.8" font-family="Times,serif" font-size="24.00" fill="#0000ff">pass</text>
</g>
<!-- 0 -->
<g id="node3" class="node">
<title>0</title>
<ellipse fill="#c0c0c0" stroke="#c0c0c0" cx="778" cy="-211" rx="90" ry="90"/>
<image xlink:href="./pics/000000.png" width="180px" height="134.609px" preserveAspectRatio="xMinYMin meet" x="688" y="-278.304"/>
</g>
<!-- 1&#45;&gt;0 -->
<g id="edge10" class="edge">
<title>1&#45;&gt;0</title>
<path fill="none" stroke="#ff0000" stroke-width="3" d="M522.9193,-301.7787C571.7017,-284.4179 633.0775,-262.5754 683.3994,-244.6667"/>
<polygon fill="#ff0000" stroke="#ff0000" stroke-width="3" points="684.7372,-247.9057 692.9849,-241.2554 682.3902,-241.3109 684.7372,-247.9057"/>
<text text-anchor="middle" x="608" y="-306.6" font-family="Times,serif" font-size="48.00" fill="#ff0000">drop b</text>
</g>
<!-- 8 -->
<g id="node4" class="node">
<title>8</title>
<ellipse fill="#c0c0c0" stroke="#c0c0c0" cx="1115" cy="-310" rx="90" ry="90"/>
<image xlink:href="./pics/001000.png" width="180px" height="134.609px" preserveAspectRatio="xMinYMin meet" x="1025" y="-377.304"/>
</g>
<!-- 0&#45;&gt;8 -->
<g id="edge6" class="edge">
<title>0&#45;&gt;8</title>
<path fill="none" stroke="#0000ff" stroke-width="3" d="M864.7859,-236.495C911.8583,-250.3234 970.1569,-267.4496 1018.6354,-281.6911"/>
<polygon fill="#0000ff" stroke="#0000ff" stroke-width="3" points="1017.9271,-285.1309 1028.5082,-284.5914 1019.9002,-278.4147 1017.9271,-285.1309"/>
<text text-anchor="middle" x="946.5" y="-291.6" font-family="Times,serif" font-size="48.00" fill="#0000ff">grab b</text>
</g>
<!-- 4 -->
<g id="node7" class="node">
<title>4</title>
<ellipse fill="#c0c0c0" stroke="#c0c0c0" cx="1115" cy="-112" rx="90" ry="90"/>
<image xlink:href="./pics/000100.png" width="180px" height="134.609px" preserveAspectRatio="xMinYMin meet" x="1025" y="-179.304"/>
</g>
<!-- 0&#45;&gt;4 -->
<g id="edge9" class="edge">
<title>0&#45;&gt;4</title>
<path fill="none" stroke="#ff0000" stroke-width="3" d="M864.7859,-185.505C911.8583,-171.6766 970.1569,-154.5504 1018.6354,-140.3089"/>
<polygon fill="#ff0000" stroke="#ff0000" stroke-width="3" points="1019.9002,-143.5853 1028.5082,-137.4086 1017.9271,-136.8691 1019.9002,-143.5853"/>
<text text-anchor="middle" x="946.5" y="-192.6" font-family="Times,serif" font-size="48.00" fill="#ff0000">grab a</text>
</g>
<!-- 36 -->
<g id="node5" class="node">
<title>36</title>
<ellipse fill="#ffffff" stroke="#ffffff" cx="1789" cy="-213" rx="90" ry="90"/>
<ellipse fill="none" stroke="#ffffff" cx="1789" cy="-213" rx="94" ry="94"/>
</g>
<!-- 8&#45;&gt;36 -->
<g id="edge2" class="edge">
<title>8&#45;&gt;36</title>
<path fill="none" stroke="#0000ff" stroke-width="3" d="M1202.2139,-332.843C1209.2113,-334.1101 1216.2013,-335.1932 1223,-336 1367.4346,-353.1408 1406.6392,-347.5529 1550,-323 1607.8264,-313.0963 1623.6736,-311.4595 1677,-287 1685.897,-282.9192 1694.8893,-278.1856 1703.7062,-273.1232"/>
<polygon fill="#0000ff" stroke="#0000ff" stroke-width="3" points="1705.6193,-276.0583 1712.4546,-267.9632 1702.063,-270.0289 1705.6193,-276.0583"/>
<text text-anchor="middle" x="1456" y="-359.6" font-family="Times,serif" font-size="48.00" fill="#0000ff">EXIT</text>
</g>
<!-- 10 -->
<g id="node6" class="node">
<title>10</title>
<ellipse fill="#00cd66" stroke="#00cd66" cx="1456" cy="-220" rx="90" ry="90"/>
<ellipse fill="none" stroke="#00cd66" cx="1456" cy="-220" rx="94" ry="94"/>
<image xlink:href="./pics/001100.png" width="180px" height="134.609px" preserveAspectRatio="xMinYMin meet" x="1366" y="-287.304"/>
</g>
<!-- 8&#45;&gt;10 -->
<g id="edge5" class="edge">
<title>8&#45;&gt;10</title>
<path fill="none" stroke="#ff0000" stroke-width="3" d="M1202.3732,-286.9396C1248.9878,-274.6367 1306.578,-259.4369 1355.0931,-246.6323"/>
<polygon fill="#ff0000" stroke="#ff0000" stroke-width="3" points="1356.2087,-249.9578 1364.9845,-244.0217 1354.4223,-243.1896 1356.2087,-249.9578"/>
<text text-anchor="middle" x="1283.5" y="-294.6" font-family="Times,serif" font-size="48.00" fill="#ff0000">grab a</text>
</g>
<!-- 10&#45;&gt;36 -->
<g id="edge3" class="edge">
<title>10&#45;&gt;36</title>
<path fill="none" stroke="#0000ff" stroke-width="3" d="M1549.6239,-228.4296C1588.9871,-230.7759 1635.2495,-231.9671 1677,-229 1679.8929,-228.7944 1682.8248,-228.5593 1685.7814,-228.2988"/>
<polygon fill="#0000ff" stroke="#0000ff" stroke-width="3" points="1686.2914,-231.7659 1695.9087,-227.321 1685.6186,-224.7983 1686.2914,-231.7659"/>
<text text-anchor="middle" x="1622.5" y="-244.6" font-family="Times,serif" font-size="48.00" fill="#0000ff">EXIT</text>
</g>
<!-- 10&#45;&gt;36 -->
<g id="edge4" class="edge">
<title>10&#45;&gt;36</title>
<path fill="none" stroke="#ff0000" stroke-width="3" d="M1541.0755,-179.4064C1550.0119,-176.3979 1559.0892,-173.829 1568,-172 1615.4551,-162.2595 1629.2994,-163.5435 1677,-172 1681.9697,-172.881 1687.0084,-173.966 1692.0579,-175.2081"/>
<polygon fill="#ff0000" stroke="#ff0000" stroke-width="3" points="1691.2037,-178.6025 1701.7664,-177.778 1692.995,-171.8355 1691.2037,-178.6025"/>
<text text-anchor="middle" x="1622.5" y="-186.6" font-family="Times,serif" font-size="48.00" fill="#ff0000">EXIT</text>
</g>
<!-- 4&#45;&gt;36 -->
<g id="edge8" class="edge">
<title>4&#45;&gt;36</title>
<path fill="none" stroke="#ff0000" stroke-width="3" d="M1200.4255,-83.5224C1289.3413,-58.2644 1431.8469,-30.1863 1550,-64 1607.3011,-80.3987 1664.22,-114.9619 1708.1295,-146.6737"/>
<polygon fill="#ff0000" stroke="#ff0000" stroke-width="3" points="1706.3165,-149.684 1716.4538,-152.7639 1710.4498,-144.0345 1706.3165,-149.684"/>
<text text-anchor="middle" x="1456" y="-78.6" font-family="Times,serif" font-size="48.00" fill="#ff0000">EXIT</text>
</g>
<!-- 4&#45;&gt;10 -->
<g id="edge7" class="edge">
<title>4&#45;&gt;10</title>
<path fill="none" stroke="#0000ff" stroke-width="3" d="M1201.0487,-139.253C1248.3086,-154.2209 1307.1498,-172.8568 1356.3924,-188.4527"/>
<polygon fill="#0000ff" stroke="#0000ff" stroke-width="3" points="1355.5166,-191.8466 1366.1066,-191.5294 1357.6301,-185.1733 1355.5166,-191.8466"/>
<text text-anchor="middle" x="1283.5" y="-195.6" font-family="Times,serif" font-size="48.00" fill="#0000ff">grab b</text>
</g>
<!-- 24&#45;&gt;0 -->
<g id="edge12" class="edge">
<title>24&#45;&gt;0</title>
<path fill="none" stroke="#0000ff" stroke-width="3" d="M522.9193,-120.2213C571.7017,-137.5821 633.0775,-159.4246 683.3994,-177.3333"/>
<polygon fill="#0000ff" stroke="#0000ff" stroke-width="3" points="682.3902,-180.6891 692.9849,-180.7446 684.7372,-174.0943 682.3902,-180.6891"/>
<text text-anchor="middle" x="608" y="-185.6" font-family="Times,serif" font-size="48.00" fill="#0000ff">drop a</text>
</g>
<!-- 24&#45;&gt;24 -->
<g id="edge13" class="edge">
<title>24&#45;&gt;24</title>
<path fill="none" stroke="#ff0000" stroke-width="3" d="M408.6464,-175.1162C412.942,-188.7012 422.7266,-198 438,-198 449.4551,-198 457.8227,-192.7694 463.1027,-184.4229"/>
<polygon fill="#ff0000" stroke="#ff0000" stroke-width="3" points="466.3825,-185.6664 467.3536,-175.1162 460.0153,-182.7581 466.3825,-185.6664"/>
<text text-anchor="middle" x="438" y="-204.8" font-family="Times,serif" font-size="24.00" fill="#ff0000">pass</text>
</g>
</g>
</svg>
